<svg width="3579" height="648" viewBox="0 0 3579 648" fill="none" xmlns="http://www.w3.org/2000/svg">
    <path
        d="M630.068 590.401C630.068 598.609 628.456 606.23 625.232 613.265C622.301 620.3 618.197 626.455 612.921 631.732C607.938 636.715 601.929 640.672 594.894 643.603C587.859 646.534 580.384 648 572.47 648C565.435 648 558.253 646.681 550.925 644.043C543.89 641.405 537.588 637.154 532.019 631.292L114.318 195.125V639.206H0V57.5031C0 45.7782 3.22436 35.2258 9.67307 25.8458C16.4149 16.1728 24.9155 8.99124 35.1748 4.30127C46.0204 -0.0955839 57.159 -1.12151 68.5908 1.22347C80.0227 3.27533 89.8423 8.55155 98.0497 17.0521L515.75 452.78V8.69811H630.068V590.401Z"
        fill="black" />
    <path
        d="M1210.2 381.551H848.777V266.353H1210.2V381.551ZM1261.2 123.016H803.049V639.206H688.731V66.2968C688.731 58.3825 690.197 50.9079 693.128 43.8729C696.059 36.8379 700.017 30.6824 705 25.4061C710.276 20.1299 716.432 16.0262 723.466 13.095C730.501 10.1637 738.123 8.69811 746.33 8.69811H1261.2V123.016Z"
        fill="black" />
    <path d="M1928.37 123.016H1676.43V639.206H1562.11V123.016H1309.73V8.69811H1928.37V123.016Z" fill="black" />
    <path
        d="M2461.26 321.314C2461.26 337.143 2458.48 354.29 2452.91 372.757C2447.34 390.931 2438.25 407.932 2425.65 423.761C2413.34 439.296 2397.07 452.34 2376.85 462.893C2356.91 473.445 2332.58 478.721 2303.86 478.721H2097.65V370.119H2303.86C2319.39 370.119 2331.41 365.429 2339.91 356.049C2348.41 346.376 2352.66 334.505 2352.66 320.435C2352.66 305.485 2347.83 293.76 2338.15 285.26C2328.77 276.759 2317.34 272.509 2303.86 272.509H2097.65C2082.11 272.509 2070.09 277.346 2061.59 287.019C2053.09 296.399 2048.84 308.124 2048.84 322.193V481.799C2048.84 497.041 2053.53 508.913 2062.91 517.414C2072.58 525.914 2084.45 530.164 2098.52 530.164H2303.86V639.206H2097.65C2081.82 639.206 2064.67 636.422 2046.2 630.852C2028.03 625.283 2011.03 616.343 1995.2 604.031C1979.66 591.427 1966.62 575.159 1956.07 555.226C1945.51 535.001 1940.24 510.525 1940.24 481.799V321.314C1940.24 305.485 1943.02 288.484 1948.59 270.311C1954.16 251.844 1963.1 234.843 1975.41 219.307C1988.02 203.479 2004.29 190.288 2024.22 179.736C2044.44 169.183 2068.92 163.907 2097.65 163.907H2303.86C2319.69 163.907 2336.69 166.692 2354.86 172.261C2373.33 177.83 2390.33 186.917 2405.86 199.521C2421.69 211.833 2434.88 228.101 2445.44 248.326C2455.99 268.259 2461.26 292.588 2461.26 321.314Z"
        fill="black" />
    <path
        d="M3062.75 163.907L2857.42 388.146L3088.7 639.206H2931.29L2779.16 473.445L2627.03 639.206H2469.18L2700.01 387.267L2495.56 163.907H2652.09L2778.28 301.528L2905.35 163.907H3062.75Z"
        fill="black" />
    <path
        d="M3578.06 278.225H3378.45V639.206H3262.81V278.225H3114.2V163.907H3262.81V8.69811H3378.45V163.907H3578.06V278.225Z"
        fill="black" />
</svg>